<svg width="1172" height="428" viewBox="0 0 1172 428" fill="none" xmlns="http://www.w3.org/2000/svg">
<path d="M5.62035 168.568C7.6539 160.131 9.72737 151.707 11.6946 143.258C15.6294 126.386 23.5249 111.283 33.7202 97.5552C46.5131 80.3415 61.9731 65.8191 81.3255 55.9377C95.7876 48.5639 111.086 44.3373 127.267 42.1192C151.854 38.7601 176.067 40.3688 198.812 49.4784C212.35 54.9011 224.644 64.0634 236.43 72.9569C244.382 78.9548 241.389 93.0051 232.877 98.6859C223.018 105.264 218.703 103.66 206.054 93.8424C189.205 80.7653 170.172 75.0562 149.028 74.8749C127.923 74.6929 108.482 79.6147 90.8585 91.4765C65.7171 108.406 50.5563 132.356 44.2163 161.336C39.5534 182.666 40.4465 204.718 48.2717 225.244C62.3687 262.263 88.3764 287.535 127.67 296.537C147.702 301.13 167.885 298.537 186.507 289.251C196.251 284.395 205.418 278.358 214.655 272.546C222.022 267.904 232.039 267.303 237.158 271.724C244.924 278.439 245.52 291.209 237.814 298.331C222.194 312.777 203.623 322.684 183.161 327.412C167.679 330.98 151.281 332.911 135.458 332.159C108.314 330.867 83.8836 320.716 62.0107 304.063C42.0958 288.897 27.6528 269.705 17.8732 247.136C13.1556 236.238 11.0378 224.223 7.69861 212.719C7.37452 211.601 6.81353 210.552 6.35764 209.462C6.11621 195.826 5.87477 182.191 5.63334 168.555L5.62035 168.568Z" fill="#373737"/>
<path d="M524.277 153.801C539.161 135.889 556.342 125.172 577.091 121.709C604.898 117.063 630.563 122.257 652.985 140.753C670.734 155.375 681.305 174.12 685.77 196.135C692.597 229.777 687.624 261.233 664.522 288.023C647.618 307.624 626.021 318.551 600.163 321.866C567.863 326.024 540.313 316.047 517.485 293.986C501.804 278.851 492.02 259.788 489.328 237.729C488.614 231.827 488.244 225.841 488.125 219.889C487.125 167.133 486.178 114.389 485.336 61.6295C485.225 55.3472 484.358 48.9461 489.379 43.3932C495.361 36.7782 503.046 37.4359 509.989 38.7418C516.891 40.0484 521.392 45.4062 521.611 53.2874C522.244 76.3227 523.035 99.342 523.681 122.377C523.96 132.202 524.042 142.044 524.25 153.788L524.277 153.801ZM585.963 154.296C569.156 153.231 553.305 159.121 541.361 172.721C525.993 190.219 520.759 210.686 524.627 234.1C529.396 262.87 552.451 286.501 580.773 289.294C606.205 291.794 625.733 282.081 640.501 262.094C653.615 244.332 655.475 223.859 650.863 203.262C644.672 175.615 621.849 152.378 585.977 154.296L585.963 154.296Z" fill="#373737"/>
<path d="M874.563 285.995C861.244 299.672 847.704 309.014 831.497 314.262C798.295 325.011 768.854 318.004 743.153 295.108C721.619 275.923 711.658 251.346 710.806 222.652C710.341 206.877 711.472 191.536 717.948 176.948C732.108 145.065 755.917 123.872 790.415 118.287C819.727 113.534 848.777 117.068 873.033 136.815C891.879 152.145 904.632 171.513 908.731 196.074C914.339 229.619 911.473 263.472 912.863 297.171C913.28 307.271 903.689 316.305 893.89 316.531C884.871 316.744 875.319 307.03 874.784 297.011C874.626 294.024 874.665 291.033 874.576 285.994L874.563 285.995ZM876.155 216.02C874.239 207.904 872.875 199.62 870.313 191.701C858.472 155.078 826.295 145.21 794.153 151.613C770.081 156.418 755.243 173.219 749.112 196.043C741.454 224.57 746.63 250.899 770.295 270.906C796.351 292.936 830.014 291.03 854.698 268.446C869.761 254.659 875.967 236.754 876.142 216.02L876.155 216.02Z" fill="#373737"/>
<path d="M1032.97 256.496C1045.87 225.654 1058.28 195.931 1070.75 166.221C1076.66 152.119 1082.18 137.812 1088.8 124.042C1096.06 108.937 1103.58 110.656 1117.11 116.542C1123 119.11 1124.74 128.009 1121.74 135.127C1111.41 159.706 1100.91 184.209 1090.56 208.775C1079.71 234.567 1069.07 260.434 1058.13 286.188C1044.9 317.354 1031.45 348.431 1018.15 379.572C1016.4 383.691 1015.3 388.116 1013.33 392.12C1008.43 402.076 998.219 405.313 986.874 396.689C980.169 391.596 978.727 386.369 981.944 378.268C988.404 362.066 995.224 346.003 1002 329.915C1006.49 319.291 1011.41 308.845 1015.52 298.082C1016.53 295.432 1016.05 291.366 1014.66 288.784C1002.83 266.648 990.679 244.69 978.528 222.718C963.781 196.043 949.23 169.259 934.037 142.83C925.588 128.135 933.61 118.693 944.099 115.583C951.614 113.36 960.143 117.575 964.715 126.278C982.843 160.792 1000.89 195.346 1018.98 229.874C1023.46 238.42 1027.96 246.94 1032.97 256.47L1032.97 256.496Z" fill="#373737"/>
<g filter="url(#filter0_i_3221_6630)">
<path d="M269.862 173.24C262.175 187.342 257.882 203.043 257.324 219.095C256.766 235.147 259.959 251.108 266.65 265.709C273.34 280.311 283.343 293.152 295.864 303.211C308.386 313.271 323.08 320.272 338.781 323.658C354.482 327.045 370.756 326.723 386.31 322.719C401.865 318.716 416.271 311.14 428.386 300.594C440.5 290.048 449.988 276.822 456.097 261.968C462.205 247.113 464.766 231.039 463.575 215.021L427.694 217.689C428.47 228.128 426.802 238.603 422.821 248.284C418.84 257.965 412.656 266.584 404.762 273.456C396.867 280.329 387.478 285.266 377.341 287.875C367.204 290.485 356.599 290.694 346.367 288.487C336.135 286.28 326.559 281.718 318.399 275.162C310.239 268.607 303.72 260.238 299.36 250.722C295 241.207 292.919 230.805 293.282 220.344C293.646 209.883 296.443 199.651 301.453 190.461L269.862 173.24Z" fill="url(#paint0_linear_3221_6630)"/>
<path d="M273.66 165.833C287.707 143.986 309.469 128.231 334.611 121.709C359.752 115.187 386.428 118.375 409.324 130.639L390.671 160.841C375.75 152.849 360.03 152.286 343.645 156.536C327.261 160.787 314.533 169.348 305.378 183.586L273.66 165.833Z" fill="url(#paint1_linear_3221_6630)"/>
<path d="M462.869 207.351C460.788 192.549 455.52 178.375 447.427 165.807C439.335 153.239 428.611 142.577 415.997 134.558L396.693 164.921C404.914 170.147 411.902 177.095 417.176 185.286C422.45 193.476 425.352 200.508 426.708 210.154L462.869 207.351Z" fill="url(#paint2_linear_3221_6630)"/>
<path d="M269.862 173.24C262.175 187.342 257.882 203.043 257.324 219.095C256.766 235.147 259.959 251.108 266.65 265.709C273.34 280.311 283.343 293.152 295.864 303.211C308.386 313.271 323.08 320.272 338.781 323.658C354.482 327.045 370.756 326.723 386.31 322.719C401.865 318.716 416.271 311.14 428.386 300.594C440.5 290.048 449.988 276.822 456.097 261.968C462.205 247.113 464.766 231.039 463.575 215.021L427.694 217.689C428.47 228.128 426.802 238.603 422.821 248.284C418.84 257.965 412.656 266.584 404.762 273.456C396.867 280.329 387.478 285.266 377.341 287.875C367.204 290.485 356.599 290.694 346.367 288.487C336.135 286.28 326.559 281.718 318.399 275.162C310.239 268.607 303.72 260.238 299.36 250.722C295 241.207 292.919 230.805 293.282 220.344C293.646 209.883 296.443 199.651 301.453 190.461L269.862 173.24Z" fill="url(#paint3_linear_3221_6630)"/>
<path d="M273.66 165.833C287.707 143.986 309.469 128.231 334.611 121.709C359.752 115.187 386.428 118.375 409.324 130.639L390.671 160.841C375.75 152.849 360.03 152.286 343.645 156.536C327.261 160.787 314.533 169.348 305.378 183.586L273.66 165.833Z" fill="url(#paint4_linear_3221_6630)"/>
<path d="M462.869 207.351C460.788 192.549 455.52 178.375 447.427 165.807C439.335 153.239 428.611 142.577 415.997 134.558L396.693 164.921C404.914 170.147 411.902 177.095 417.176 185.286C422.45 193.476 425.352 200.508 426.708 210.154L462.869 207.351Z" fill="url(#paint5_linear_3221_6630)"/>
<g filter="url(#filter1_f_3221_6630)">
<path d="M278.951 276.022L278.951 276.023C266.789 257.701 263.579 227.297 263.57 215.402C259.367 254.704 277.723 274.686 278.951 276.022Z" fill="white"/>
</g>
<g filter="url(#filter2_f_3221_6630)">
<path d="M434.058 230.422L434.058 230.422C432.614 248.902 418.193 270.042 411.668 277.612C436.227 254.973 434.194 231.962 434.058 230.422Z" fill="white"/>
</g>
<g filter="url(#filter3_f_3221_6630)">
<path d="M309.626 140.341L309.626 140.342C327.947 128.179 358.352 124.97 370.247 124.961C330.944 120.758 310.963 139.113 309.626 140.341Z" fill="white"/>
</g>
<g filter="url(#filter4_f_3221_6630)">
<path d="M425.25 150.311L425.25 150.311C440.296 162.484 451.086 187.146 454.265 197.122C447.295 163.047 426.633 151.11 425.25 150.311Z" fill="white"/>
</g>
</g>
<defs>
<filter id="filter0_i_3221_6630" x="257.262" y="118.398" width="206.598" height="210.783" filterUnits="userSpaceOnUse" color-interpolation-filters="sRGB">
<feFlood flood-opacity="0" result="BackgroundImageFix"/>
<feBlend mode="normal" in="SourceGraphic" in2="BackgroundImageFix" result="shape"/>
<feColorMatrix in="SourceAlpha" type="matrix" values="0 0 0 0 0 0 0 0 0 0 0 0 0 0 0 0 0 0 127 0" result="hardAlpha"/>
<feOffset dy="3.20447"/>
<feGaussianBlur stdDeviation="2.13631"/>
<feComposite in2="hardAlpha" operator="arithmetic" k2="-1" k3="1"/>
<feColorMatrix type="matrix" values="0 0 0 0 0.358545 0 0 0 0 0 0 0 0 0 0 0 0 0 0.3 0"/>
<feBlend mode="normal" in2="shape" result="effect1_innerShadow_3221_6630"/>
</filter>
<filter id="filter1_f_3221_6630" x="259.635" y="212.088" width="22.6249" height="67.246" filterUnits="userSpaceOnUse" color-interpolation-filters="sRGB">
<feFlood flood-opacity="0" result="BackgroundImageFix"/>
<feBlend mode="normal" in="SourceGraphic" in2="BackgroundImageFix" result="shape"/>
<feGaussianBlur stdDeviation="1.65526" result="effect1_foregroundBlur_3221_6630"/>
</filter>
<filter id="filter2_f_3221_6630" x="408.66" y="227.414" width="28.5002" height="53.2033" filterUnits="userSpaceOnUse" color-interpolation-filters="sRGB">
<feFlood flood-opacity="0" result="BackgroundImageFix"/>
<feBlend mode="normal" in="SourceGraphic" in2="BackgroundImageFix" result="shape"/>
<feGaussianBlur stdDeviation="1.50396" result="effect1_foregroundBlur_3221_6630"/>
</filter>
<filter id="filter3_f_3221_6630" x="306.314" y="121.025" width="67.2421" height="22.6288" filterUnits="userSpaceOnUse" color-interpolation-filters="sRGB">
<feFlood flood-opacity="0" result="BackgroundImageFix"/>
<feBlend mode="normal" in="SourceGraphic" in2="BackgroundImageFix" result="shape"/>
<feGaussianBlur stdDeviation="1.65526" result="effect1_foregroundBlur_3221_6630"/>
</filter>
<filter id="filter4_f_3221_6630" x="423.235" y="148.298" width="33.0455" height="50.8424" filterUnits="userSpaceOnUse" color-interpolation-filters="sRGB">
<feFlood flood-opacity="0" result="BackgroundImageFix"/>
<feBlend mode="normal" in="SourceGraphic" in2="BackgroundImageFix" result="shape"/>
<feGaussianBlur stdDeviation="1.00746" result="effect1_foregroundBlur_3221_6630"/>
</filter>
<linearGradient id="paint0_linear_3221_6630" x1="360.56" y1="217.131" x2="360.56" y2="325.98" gradientUnits="userSpaceOnUse">
<stop stop-color="#22A2D7"/>
<stop offset="1" stop-color="#19D6FF"/>
</linearGradient>
<linearGradient id="paint1_linear_3221_6630" x1="334.569" y1="121.064" x2="354.229" y2="178.532" gradientUnits="userSpaceOnUse">
<stop offset="0.0230554" stop-color="#FFCF55"/>
<stop offset="0.955165" stop-color="#EA7E00"/>
</linearGradient>
<linearGradient id="paint2_linear_3221_6630" x1="402.65" y1="195.956" x2="449.532" y2="167.222" gradientUnits="userSpaceOnUse">
<stop stop-color="#D23E53"/>
<stop offset="1" stop-color="#FF5971"/>
</linearGradient>
<linearGradient id="paint3_linear_3221_6630" x1="360.56" y1="217.131" x2="360.56" y2="325.98" gradientUnits="userSpaceOnUse">
<stop stop-color="#22A2D7"/>
<stop offset="1" stop-color="#19D6FF"/>
</linearGradient>
<linearGradient id="paint4_linear_3221_6630" x1="334.569" y1="121.064" x2="354.229" y2="178.532" gradientUnits="userSpaceOnUse">
<stop offset="0.0230554" stop-color="#FFCF55"/>
<stop offset="0.955165" stop-color="#EA7E00"/>
</linearGradient>
<linearGradient id="paint5_linear_3221_6630" x1="402.65" y1="195.956" x2="449.532" y2="167.222" gradientUnits="userSpaceOnUse">
<stop stop-color="#D23E53"/>
<stop offset="1" stop-color="#FF5971"/>
</linearGradient>
</defs>
</svg>
